<svg width="127" height="518" viewBox="0 0 127 518" fill="none" xmlns="http://www.w3.org/2000/svg">
<path d="M74 431H53V516.5H74V431Z" fill="#FBD9AC"/>
<path d="M51 399V388H74V399H51Z" fill="#FBD9AC"/>
<path d="M54.5 161.5H77L74 365H51L51.5 130.5L58.5 124.5L66.5 113L60 131H54.5V161.5Z" fill="#FBD9AC"/>
<path fill-rule="evenodd" clip-rule="evenodd" d="M51 365H37.5L30.5 359.5V351.5L32 343L36 335.5L37.5 194L27 184.5V167L30.5 161.5V128.5H24L47 115.5L44.5 110.5V100L47 95L54 89.5L47 84V66.5L53 60L61.5 56V14L57 10.5L56 7.5L56.5 6L58 4.5L59.5 6L58.5 7.5L59 9L60 9.5L61.5 10.5H64.5L67.5 9.5L68.5 8V6L67.5 4.49999L66.5 3.5L64.5 3.00001L65.5 0.5H67L68.5 1.5L69.5 2.5L70.5 3.5L71 5V6.50001V8.5L70 10.5L68.5 12L65.5 13V56L72 59L67.5 109.5L66.5 114L58.5 124.5L51.5 130.5L51 365ZM36 131V162H48V131H36Z" fill="#FBF7C7"/>
<path fill-rule="evenodd" clip-rule="evenodd" d="M74 388.5H52H0L37.5 365H74L77 131H60L67.5 109.5L69 88.5L72 59L81 65.5V83.5L73 88.5L81 94.5L83 100V109.5L81 115L102.5 128H97.5V162L100 166.5V184.5L90 193V335L95.5 342L97.5 351.5V356.5L95.5 359L90 367L125.5 386.5V388.5H110.5L106.5 399V460L95.5 471V516.5H74V431H86.5V399H74V388.5ZM82 162V131H94V162H82ZM90 400V431H102V400H90Z" fill="#98837E"/>
<path fill-rule="evenodd" clip-rule="evenodd" d="M51.5 388.5V399H42.5V431.074L53 431L53.5 516.5H33V471.5L21 460.5V399L16.5 391V388.5H51.5ZM26 400V431H38V400H26Z" fill="#FBF7C7"/>
</svg>
